<svg width="612" height="612" xmlns="http://www.w3.org/2000/svg">

 <g>
  <title>background</title>
  <rect fill="none" id="canvas_background" height="402" width="582" y="-1" x="-1"/>
 </g>
 <g>
  <title>Layer 1</title>
  <path stroke="null" transform="rotate(90.29676055908203 307.0491638183594,304.40924072265625) " id="svg_1" d="m575.120605,609.833557l0,-59.587646l29.030579,-29.843811l0,59.587769l-29.030579,29.843689zm-565.173509,-581.004938l29.030595,-29.84375l57.963959,0l-29.030502,29.84375l-57.964051,0z" fill="#C0392B"/>
  <path stroke="null" transform="rotate(90.02225494384766 322.9499816894532,317.60000610351557) " id="svg_2" d="m40.822926,27.476395l224.305737,0l339.948364,349.623276l0,230.623962l-564.254101,-580.247238z" fill="#E74C3C"/>
  <text id="svg_3" font-size="97.0097" font-family="'Lato-Regular'" fill="#FFFFFF" transform="matrix(0.7071,0.7071,-0.7071,0.7071,8531.2275,28325.1719) ">POPULAR</text>
  <g transform="rotate(-91.42625427246094 378.1999816894531,380.1499633789062) " stroke="null" id="svg_4">
   <path stroke="null" id="svg_5" d="m228.399994,240.399979l-16.700012,16.699997l-11.600006,-11.600006l50,-50l17.600006,17.600006c3.5,3.500015 6.100006,7 7.800018,10.300003c1.699982,3.400009 2.599976,6.599991 2.799988,9.699997c0.200012,3.100006 -0.299988,6 -1.600006,8.800018c-1.199982,2.800003 -3,5.299988 -5.299988,7.599976c-2.5,2.5 -5.200012,4.400024 -8.100006,5.700012c-2.899994,1.299988 -5.899994,1.799988 -9,1.700012c-3.100006,-0.200012 -6.399994,-1.100006 -9.700012,-2.800018c-3.399979,-1.699997 -6.800003,-4.299988 -10.199982,-7.699997l-6,-6zm8.800003,-8.799973l6,6c2.999985,3 5.900009,4.5 8.699997,4.399994s5.399994,-1.499969 8,-4c1.100006,-1.099976 2,-2.399994 2.600006,-3.600006c0.600006,-1.299988 0.899994,-2.599976 0.899994,-3.999969s-0.399994,-2.800018 -1.100006,-4.200027c-0.699982,-1.399979 -1.799988,-2.900009 -3.199982,-4.299973l-6,-6.000015l-15.900009,15.699997z" fill="#FFFFFF"/>
   <path stroke="null" id="svg_6" d="m318.200012,313.600006c-3.600006,3.600006 -7.600006,6.399994 -12,8.200012c-4.399994,1.899994 -8.799988,2.799988 -13.399994,2.799988s-9.100006,-0.899994 -13.600006,-2.799988s-8.700012,-4.800018 -12.600006,-8.700012c-3.899994,-3.899994 -6.800018,-8.100006 -8.700012,-12.600006s-2.799988,-9 -2.799988,-13.600006s1,-8.999969 2.799988,-13.399963c1.899994,-4.400024 4.600006,-8.300049 8.200012,-12c3.600006,-3.600006 7.600006,-6.400024 12,-8.200043c4.399994,-1.899994 8.800018,-2.799957 13.399994,-2.799957s9.100006,0.899963 13.600006,2.799957c4.5,1.900009 8.700012,4.800018 12.600006,8.700012s6.799988,8.100006 8.600006,12.600006c1.899994,4.5 2.799988,9 2.799988,13.600006c0,4.5 -1,9 -2.799988,13.399994c-1.700012,4.399994 -4.500031,8.399994 -8.100006,12zm-11.800018,-11.900024c2.5,-2.5 4.399994,-5 5.699982,-7.599976c1.300018,-2.600006 2.100006,-5.200012 2.300018,-7.800018c0.199982,-2.599976 -0.200012,-5.100006 -1.300018,-7.599976c-1,-2.500031 -2.599976,-4.800018 -4.799988,-7c-2.200012,-2.200012 -4.600006,-3.899994 -7.100006,-4.899994s-5,-1.400055 -7.600006,-1.300018c-2.599976,0.200012 -5.199982,0.899963 -7.799988,2.300018c-2.600006,1.299988 -5.200012,3.199982 -7.600006,5.699982c-2.5,2.5 -4.399994,5 -5.699982,7.699982c-1.300018,2.600037 -2.100006,5.199982 -2.300018,7.800018s0.300018,5.100006 1.300018,7.600006s2.699982,4.799988 4.899994,7.099976c2.199982,2.200012 4.600006,3.800018 7,4.900024s5,1.399994 7.5,1.299988c2.600006,-0.200012 5.199982,-0.899994 7.799988,-2.299988c2.600006,-1.5 5.200012,-3.400024 7.700012,-5.900024z" fill="#FFFFFF"/>
   <path stroke="null" id="svg_7" d="m327.100006,339l-16.699982,16.700012l-11.600037,-11.600006l50,-50l17.600037,17.600006c3.5,3.5 6.099976,7 7.799988,10.299988c1.700012,3.399994 2.600006,6.600006 2.799988,9.700012c0.200012,3.099976 -0.299988,6 -1.599976,8.799988c-1.200012,2.799988 -3,5.299988 -5.300018,7.600006c-2.5,2.5 -5.199982,4.399994 -8.100006,5.699982c-2.899994,1.300018 -5.899994,1.800018 -9,1.700012c-3.100006,-0.200012 -6.399994,-1.100006 -9.699982,-2.799988c-3.400024,-1.700012 -6.800018,-4.300018 -10.200012,-7.700012l-6,-6zm8.699982,-8.700012l6,6c3,3 5.899994,4.5 8.700012,4.399994c2.799988,-0.100006 5.399994,-1.5 8,-4c1.099976,-1.100006 2,-2.399994 2.599976,-3.600006c0.600006,-1.299988 0.900024,-2.599976 0.900024,-4s-0.400024,-2.799988 -1.100006,-4.199982c-0.700012,-1.399994 -1.800018,-2.899994 -3.200012,-4.300018l-6,-6l-15.899994,15.700012z" fill="#FFFFFF"/>
   <path stroke="null" id="svg_8" d="m372.5,399.5c1.600006,1.600006 3.200012,2.700012 4.899994,3.399994c1.700012,0.700012 3.5,1 5.300018,0.899994s3.599976,-0.599976 5.5,-1.599976c1.799988,-0.900024 3.599976,-2.300018 5.399994,-4l29.600006,-29.600006l11.599976,11.600006l-29.599976,29.599976c-3.100006,3.100006 -6.400024,5.400024 -9.900024,6.900024c-3.599976,1.599976 -7.199982,2.299988 -10.899994,2.299988c-3.699982,0 -7.399994,-0.799988 -11.100006,-2.399994s-7.199982,-4.100006 -10.5,-7.399994s-5.799988,-6.800018 -7.399994,-10.5s-2.399994,-7.400024 -2.399994,-11.100006s0.799988,-7.300018 2.399994,-10.899994c1.600006,-3.5 3.899994,-6.800018 7,-9.900024l29.600006,-29.599976l11.600006,11.599976l-29.600006,29.600006c-1.799988,1.799988 -3.100006,3.600006 -4,5.399994s-1.5,3.700012 -1.600006,5.5s0.200012,3.600006 0.899994,5.299988c0.5,1.700012 1.600006,3.400024 3.200012,4.900024z" fill="#FFFFFF"/>
   <path stroke="null" id="svg_9" d="m413.200012,440l18.5,18.5l-9.299988,9.299988l-30.100006,-30.099976l50,-50l11.600006,11.599976l-40.700012,40.700012z" fill="#FFFFFF"/>
   <path stroke="null" id="svg_10" d="m474.5,519.799988l-9,-9c-1,-1 -1.600006,-2.100006 -1.799988,-3.200012c-0.200012,-1.099976 0,-2.199982 0.399994,-3.199982l5.799988,-11.700012l-19,-19l-11.699982,5.800018c-0.900024,0.399994 -1.900024,0.5 -3.100006,0.399994s-2.200012,-0.700012 -3.200012,-1.700012l-9.100006,-9.100006l69.300018,-30.599976l11.899994,11.899994l-30.5,69.399994zm-13,-51.199982l13.700012,13.700012l9.099976,-18.300018c0.600006,-1.199982 1.200012,-2.5 2,-4.099976s1.700012,-3.200012 2.600006,-5c-1.799988,1 -3.399994,1.899994 -5,2.699982c-1.600006,0.800018 -3,1.5 -4.199982,2l-18.200012,9z" fill="#FFFFFF"/>
   <path stroke="null" id="svg_11" d="m508.599976,517l-18.499969,18.5l-11.600006,-11.600037l50,-49.999969l16.299988,16.300018c3.600037,3.599976 6.300049,7.099976 8.100037,10.399994s2.899963,6.399994 3.099976,9.299988c0.299988,2.899994 -0.099976,5.699982 -1.200012,8.199982c-1.099976,2.5 -2.699951,4.900024 -4.799988,7c-1.599976,1.600037 -3.400024,2.900024 -5.200012,3.900024c-1.899963,1 -3.899963,1.700012 -5.899963,2.099976c-2.100037,0.400024 -4.200012,0.400024 -6.400024,0.100037s-4.400024,-0.900024 -6.699951,-1.900024c0.399963,1.200012 0.599976,2.400024 0.699951,3.599976s0,2.5 -0.299988,3.900024l-6.800049,28l-10.5,-10.5c-1.899963,-1.900024 -2.599976,-4.099976 -2,-6.400024l6.200012,-22.799988c0.299988,-1 0.299988,-1.899963 0.100037,-2.700012s-0.800049,-1.599976 -1.700012,-2.5l-2.900024,-2.899963zm8,-8l4.700012,4.700012c1.600037,1.599976 3.100037,2.699951 4.600037,3.399963c1.5,0.700012 3,1.100037 4.399963,1.100037s2.800049,-0.300049 4,-0.900024c1.300049,-0.599976 2.5,-1.5 3.600037,-2.599976c2.200012,-2.200012 3.200012,-4.600006 3,-7.300018s-1.799988,-5.5 -4.799988,-8.5l-4.700012,-4.699982l-14.800049,14.799988z" fill="#FFFFFF"/>
  </g>
 </g>
</svg>